<svg xmlns="http://www.w3.org/2000/svg" viewBox="0 0 24 24" id="openstreetmap">
  <path fill="#404A5D" d="M23.947 6.615C23.609 4.4 22.429 2.518 20.615 1.3 17.313-.922 12.843-.233 10.348 2.881a7.621 7.621 0 0 0-1.671 4.773c0 .593.067 1.171.185 1.674.181.8.582 1.767 1.007 2.429l.218.343-1.746 1.744-.277-.14c-.242-.124-.319-.14-.621-.14-.65-.002-.464-.159-4.069 3.449C-.194 20.585.002 20.354.002 20.999c-.004.58.067.689 1.184 1.802.938.934 1.12 1.079 1.473 1.168l.001.001c.255.065.675.019.946-.106.212-.097.638-.505 3.402-3.261 3.586-3.582 3.433-3.398 3.43-4.049 0-.301-.015-.376-.14-.617l-.14-.28 1.746-1.744.343.218c1.338.858 3.087 1.294 4.662 1.163 1.107-.093 1.924-.32 2.885-.803l.04-.017a6.745 6.745 0 0 0 1.905-1.384l.001-.001a7.56 7.56 0 0 0 2.207-4.401c.071-.494.071-1.607 0-2.073zm-1.848 3.826-.017.038a6.456 6.456 0 0 1-4.592 3.472l.001.002c-.524.095-1.558.115-2.068.037l-.035-.004a6.422 6.422 0 0 1-3.867-2.129A6.353 6.353 0 0 1 9.945 7.66c0-1.393.447-2.682 1.193-3.713.309-.437 1.036-1.164 1.482-1.481a6.59 6.59 0 0 1 2.462-1.07c.606-.129 1.835-.142 2.417-.025.839.168 1.731.532 2.37.962 2.686 1.801 3.623 5.208 2.23 8.108z"></path>
  <path fill="#95CA6E" d="M2.712 5.459c.013.019.994.315 2.183.654H4.9l2.185.629c.034.003-1.2-4.325-1.248-4.376-.041-.042-4.33-1.271-4.356-1.246-.016.018 1.191 4.277 1.231 4.339zm19.368 9.203c-.013-.037-.105.009-.265.134-1.133.857-2.572 1.486-3.913 1.713l-.156.028.044.156.002.009c.016.065.036.127.057.178l-.001.002c.012.021 4.464-1.227 4.497-1.261.007-.009-.211-.794-.265-.959zm-4.853 2.801c-.172-.084-4.396-1.262-4.419-1.236-.05.053-1.284 4.421-1.259 4.449l-.574-.158c.729.233 1.462.455 2.772.809l-.001-.001c1.192.344 2.194.628 2.222.631.028 0 .072-.069.097-.156l.695-2.814c.216-.748.433-1.495-.059.578.523-1.814.588-2.077.526-2.102zm5.03-1.17c-.017-.019-4.299 1.177-4.346 1.211-.019.014-1.248 4.294-1.248 4.347v.001c0 .019.044.03.098.019.133-.027 4.244-1.199 4.264-1.218.032-.023 1.251-4.342 1.232-4.36zM1.482 11.289c.085.424 1.215 4.251 1.265 4.29l.001.001c.037.029.077.054.093.054l.025-.023c.46-.439.913-.885 1.367-1.344.755-.755 1.441-1.42 1.525-1.479.136-.094.153-.125.125-.223-.03-.111-.101-.136-2.225-.74-2.03-.579-2.192-.619-2.176-.536zm8.423-9.967c-.036.014-.827.244-1.762.509l-1.695.483.078.28.52 1.806v.002c.391 1.365.506 1.683.506 1.39l.004-.026c.033-.193.079-.382.128-.535l.014-.061a8.693 8.693 0 0 1 1.947-3.511c.177-.196.294-.352.26-.337zM10.343 2.889l.006-.007.006-.009zM7.397 8.73l-.421 1.476a120.75 120.75 0 0 1-.445 1.534l.001-.001c-.016.04.001.05.059.034.045-.014.397-.115.787-.224.387-.111.712-.206.72-.212a6.173 6.173 0 0 0-.181-.545 10.515 10.515 0 0 1-.464-1.742l-.056-.32zm-3.828 2.472c1.188.34 2.199.622 2.249.625.08.004.147-.2.724-2.22.349-1.222.628-2.23.619-2.239-.047-.041-4.453-1.275-4.475-1.252-.024.027-1.303 4.448-1.286 4.46.003.003.98.283 2.169.626zm5.87 9.877c.788-.223 1.446-.42 1.466-.436.039-.039 1.271-4.335 1.248-4.36-.009-.01-.099.006-.202.034l-.182.051-.011.307c-.005.17-.032.404-.058.522-.067.283-.301.797-.473 1.015-.075.101-.829.876-1.676 1.728l.001.002-1.539 1.542 1.426-.405z"></path>
</svg>
