<?xml version="1.0" encoding="UTF-8"?>
<svg  width="301.4257" height="301.4258"  data-name="Layer 2" xmlns="http://www.w3.org/2000/svg" viewBox="0 0 301.4257 301.4258">
  <g id="c" data-name="Layer 1">
    <g>
      <path d="m221.9687,87.9775v-6.5889c-3.0801-1.582-5.4507-2.7265-6.9433-3.0771-.7076-.1787-2.7286-.4404-3.4302-.4404-1.667-.2627-1.8482.4404-1.667,1.3193.437,1.9355,2.5454,2.7227,3.1636,2.6367,1.9336-.3515,2.5478.4395,3.9545.9678.8765.2607,3.0767.7851,2.4605,1.4033-.7017.708-.7891.0918-1.4966.5283-.6142.4395-2.895-.8779-3.6924-.1787-.435.4434.0894,1.7608-.791,1.9356-.5244.0898-1.3154-.6993-2.021-1.1426-2.0166-1.1426-4.1313-3.1611-6.1484-4.04-2.2022-.878-2.377.1748-2.1123,1.582.0849.791,0,1.1406.7031,2.6328.7891,1.584,5.187,2.375,6.7666,3.957.9702.8819,1.8506,1.1465,1.4072,1.5821-.791,1.3193-1.4922,2.3769-2.8994,2.9033-1.3198.6133-6.5937-4.9229-6.6792-3.3389.1729,1.2285,1.1426,2.7246,1.3174,4.044.3496,1.9316.3496,3.5117.4395,4.038.3515,1.2325,2.7221,1.7608,5.4467.878,1.1451-.4346,2.5498-1.1377,3.7798-1.8399,1.6714-.9697,3.4302-4.8369,4.396-4.3076,2.2876,1.2315,2.375,1.667,4.0459,3.6875h0v-5.9736c-1.7583-.9678-3.251-1.8477-2.7266-2.4619.3541-.4395,1.4073-.7061,2.7266-.7061Zm-10.4629-16.084c.7056,0,4.9248-5.6289,5.98-7.5605.2642-1.1406,1.1406-2.3721,1.667-2.8985.8848-.7021,1.4966-.5273,1.8481.0889.4395.791.3521,2.2852-.0874,4.3916-.2641,1.4092-.7031.7949-.9697,1.2324-1.4922,1.8467-3.1597,3.6055-4.1274,4.9268-.6182.6933.3515,1.5752.8784,1.3135,1.7568-2.1084,3.6924-4.9248,5.2739-6.9434v5.8877l-.0869.0898c-1.0576,1.1446-1.6714.6143-2.2002,1.9336.0894.3496,1.3193.6143,2.2871.6143v4.6621c-.5283-.3545-1.1445-.6201-1.5815-.8809-.3496-.1767-.9678-.5302-1.6695-.6181-.5283-.083-1.2319.2666-1.7607,0-.7891-.4365-1.4072-.8779-1.8418-1.1426-.5288-.3477-.8848-.4346-1.5884-.7891-.7012-.3535-2.1064-1.1445-3.5132-1.0546-1.3198.0869-2.9013,2.0224-3.9546,2.4619-.9702.4414-1.8486.8789-2.6391,1.2304-.9658.4385-1.7549.793-2.7246.3516-1.4073-.6162-1.0513-3.1641-.2622-3.8672,1.2319-.9678,2.2832-1.7568,3.2529-2.8144.6143-.7032.9658-1.669,1.4927-2.1973.5283-.5244,1.1426-.5244,1.6709-.6143.6142-.1767,1.3198-.3515,1.7612.1729.437.4414.437,1.0576.8784,1.498.6118.6123,1.1406.6123,2.0166.5254h0Zm10.4629,19.252c.5288.3496,1.1431.7021,1.7568,1.0537.4395.2617.7911.3496,1.23.5264v5.7158c-1.0527.1748-2.3725-.5313-2.9868-1.3223v-5.9736Zm2.9868-2.6406v-5.4493c-.8759-.5263-1.667-.9638-2.458-1.4091l-.5288-.2579v6.5889c.791,0,1.7568.0899,2.4585.4414.1768,0,.356.086.5283.086h0Zm-2.9868-22.0606c.6143-.8828,1.2285-1.6699,1.7568-2.1963.4395-.5264.8785-1.2275,1.23-1.7588v6.2422c-.1723.1729-.2622.3477-.4389.5264.0874.0879.1767.1748.4389.2627v7.998c-.4389.0899-.3515,0-.7011.2647-.0894.1748.3496.6162.7011.7041v2.9883l-.1723-.087c-.9703-.6162-1.938-1.2324-2.8145-1.7568v-4.6621c.4375,0,.8765-.0879,1.0532-.3496,1.1431-1.1436,1.6714-1.8526.356-2.3731-.0894.085-.7056-.5293-1.4092.085v-5.8877h0Zm6.2402,17.2295v-4.2188c-.1728-.1777-.3515-.5292-.3515-.6162.1787-.1767.2622-.2646.3515-.2646v-5.1865c-.3515,0-.791-.086-.8803-.1748.2661-.5264.3515-.5264.8803-.7911h0v-4.1298c-.0893.1709-.2622.4394-.5288.6123-.6137.6162-2.019.7929-2.7246.6162v7.998l.0874-.0888c.4434-.0879.354.3535.4434.3535.2602.4375.1748.5283-.4434.7041h-.0874v2.9883c1.2305.791,2.3731,1.58,3.2534,2.1982Zm-3.2534,9.0518c.5308.1767.9683.2627,1.0576.6181.5245,1.7549.6138,2.0147-.0893,4.1299-.1773.6152-.5269.8779-.9683.9678v-5.7158h0Zm3.2534-4.6582c-.2622-.1768-.6142-.2647-1.0551-.3516-.7017.0869-1.23.9678-2.1983.7891v-5.4493c1.2305.793,2.4624,1.5821,3.2534,2.1104v2.9014h0Zm-3.2534-25.5782c.3521-.7031.7056-1.2275,1.1431-1.2275.791,0,1.6689.9658,2.1103,1.667v3.166c-.0893-.0879-.2622-.1797-.4414-.1797-.2661,0-.3496.2666-.4389.3496-.8765.8828-1.6675,1.584-2.3731,2.4668v-6.2422h0Zm3.2534.4395c.0874.0918.1768.1767.1768.2637.2603.6162.8804-.1719,1.3154,0,.8804.2626,1.6695.9658,1.7588,1.582.1773.7041.4414,1.4902.8804,1.8467v8.7021c-.1768-.0898-.2642-.1767-.356-.2666-.5244-.2617-.6972.3516-.8759.708-.0874.2617.1787.7031.6181.8779.2578.2627.437.4375.6138.6124v5.4492c-.0894.0908-.0894.2685,0,.3515v7.9991c-1.2319-.877-2.46-2.1963-4.1314-2.9873v-2.9014c.2642.083.4371.2685.6119.3496.5327.3535,1.2343,0,1.0595-.5244,0-.1768-.7036-.6162-1.6714-1.3174v-4.2188c.1768.085.2642.1768.4371.1768.2685-.0918.7075,0,.7075-.4414-.0874-.2646-.0874-.4395-.5327-.6162-.2579-.1748-.4351-.1748-.6119,0v-5.1865c.2642,0,.354-.086.4371-.1748.5307-.4454.7075-.6123.1748-.8809-.0855.0898-.1748-.085-.6119.0898v-4.1298c.6119-.878.7056-1.6709,0-2.1973v-3.166Zm4.1314,20.1269h.0874c2.812,1.3194,3.4263,2.0254,3.8672,4.2207.3501,1.8418.9639,3.1621-.5244,4.2188-1.3194.5273-2.3789.1748-3.4302-.4404v-7.9991Zm0-16.4345c.2666.2617.6162.3515,1.0513.2617,1.4985-.1729,2.3789-3.2529,4.1338-2.1953.9677.791.9677,2.4599,1.0532,3.4297,0,1.2285-.791,1.8427-3.8653,2.373-.1728.0869-.2622,0-.791.5244-.4414.7031.791,1.4072-.4414,2.4619-.6138.5293,1.9336,2.5498,2.1109,2.8975.1787.4414.791.0937.7031-.6094-.085-.1767-.1787-.8828-.4409-1.4941-.3496-1.0576-.8785-2.1963-.6143-2.6397.2647-.6162,1.3198,0,2.4624.791.8765.6143,2.5498.6143,3.0742,1.4073.6182.791,1.1426,1.1406.3516,4.3037-.1768.5293-1.1426.8789-2.021,1.1445-1.4048.5293-2.1958,1.3223-3.6025,1.8486-.7911.3497-2.7247,1.0538-3.1641,1.5782v-5.4492c.2666.1748.5268.2636.791.2636.2603-.0888.6162-.5283.5269-.7881-.354-.5293-.8785-1.0595-1.3179-1.4072v-8.7021h0Z" fill="#005826" fill-rule="evenodd" stroke-width="0"/>
      <path d="m169.9301,41.2197c1.9361.6143,3.2554.7056,3.3428.3516.5244-1.586,1.2324-4.3936,1.3154-6.6812.0938-1.1445,1.0572-1.5815,1.7608-1.7607,1.6694-.5225,2.1982-.7911,2.9848-.5225,1.4092.6138,2.2002,1.8423,2.9014,3.4282.2666.7866.9722-.0898-.6138,3.3384-.6997,1.6694-.5249,1.9316-.2622,2.2832.7032.5288,1.5835.4395,2.9864.4395,1.6757-.0899,2.727-2.2857,4.8393,2.1103.3457.5264.4351,1.23-.2685,1.8482-.8785.7016-2.5454.7871-4.5708,1.3173-2.6368.6143-6.4165-.0893-6.3272,1.6675.5288,4.396,3.3408,11.0767,7.9136,16.439,1.1406,1.4043,2.7222,2.7217,4.5683,3.7793,2.6373,1.4951,4.8331,2.7226,3.2554,3.0742-2.4624.5313-10.813-.2578-12.7485-2.0205-2.021-1.9316-6.1524-14.7656-6.7642-17.3174-.0918-.083-.2685-.1787-.4458.0918-2.0166,2.5479-6.2397,7.2051-9.5786,8.7002-1.4922.6133-3.1636-.3516-3.6025-.9658-.5244-.6143-4.3941-2.5518-4.7476-4.0459-.0874-.877.4409-.7871.8804-.6992,5.4487,1.1445,6.5937-.2676,8.0859-.8789,3.9546-1.6739,5.626-5.98,5.2744-6.2442-5.0996-.8784-6.9458-.7016-7.9965-2.8974-1.4966-6.9497,1.2299-7.2974,4.0376-6.2442,1.4072.6162,3.2534,1.3198,3.7797,1.4092Z" fill="#005826" fill-rule="evenodd" stroke-width="0"/>
      <path d="m109.8115,55.2841c.7016-.0878,1.3198,0,2.1958.7032,2.3769,1.5781,3.0786,4.6562,4.2212,6.2402.4389,0,1.23-.5293,2.1958-1.1387,1.2344-.8828,2.6372-1.7636,2.3769-2.1152-.9741-1.8457-6.1548-14.0635-7.2119-15.6455-.0854-.1748-.4389-.6118-.5244-.791-1.9336-2.5518.3496-4.5684,1.23-4.833,1.4048-.4409,5.3638.8784,5.4468,2.2812-.1724,1.4986,1.3198,5.0122,2.7246,8.3526,1.3198,2.8144,2.4624,5.6259,3.0786,6.5918.3515.8779,3.4258-1.7569,4.396-2.8096,1.3193-.8784-1.0557-5.4492-.1792-6.8565.3515-.7031,4.1313-1.6689,5.98,1.0513.8759,1.584,1.3193,3.8672,1.7563,5.9751.3496,1.4971.8804,3.3438,1.1406,3.959.2686.6992-1.2256,4.6582-1.8418,5.7119-1.2324.9678-3.2534-2.1943-4.0464-3.9551-.4389-.9677-.5263-1.3154-.8784-1.4072-.8784.2647-2.9013,1.6699-3.8652,2.9023-.5303.6153-.3516,1.7608-1.1465,2.377-3.6885,1.4902-7.1186,3.8672-7.3784,4.6533-.1792.4414-1.3198,2.7266-1.4092,3.2559-.0898.5244-1.582.7031-1.9316.9658-.793.79-2.023-.6191-3.6944-1.584-1.7588-.8769-1.3154-2.0215-1.4072-3.8652,0-2.0215-1.1426-5.1875-2.1938-7.2149-.5308-1.0507-1.1446-2.2812.9658-2.8047Z" fill="#005826" fill-rule="evenodd" stroke-width="0"/>
      <path d="m67.4428,78.8388c.7056-.3515.791-1.0556.9742-2.1084.7871-2.8144.8745-3.8671,1.7548-5.7158-1.4072-1.3174-2.9912-2.5517-4.3105-3.8672-.2603-.2646-.6123-.4375-.8784-.5263-.8804-.2647-1.4073-1.2286-1.4073-2.3731v-.3555c0-.872.2647-1.8447.8829-2.8037.3452-.5312,3.6899-1.7636,4.6557-.7978,1.4072,1.4072,2.8994,3.2539,4.398,4.3047.0854-.085.2622-.2627.437-.3477v11.6914c-.1748-.1748-.3516-.2685-.437-.3515-.5284,0-.4434.7011-.4434.9677-.3476,1.3155-1.0552,2.2832-1.9336,2.8096-.5244.1748,1.4966,1.7607,2.814,2.3731v9.7568c-.2622-.0869-.5264-.1748-.8804-.2617-1.3154-.0879-2.458-.0879-3.5151-1.1465-.6123-1.3135-.9639-1.9385-1.2305-2.8106-.1748-.3515-.439-.7031-.7905-1.1386-1.0532-1.1465-1.8443-2.2022-2.4605-3.6963-.2685-.878.2642-3.3389,2.3706-3.6026Zm6.5064-14.5908c.7036-.6181,1.582-1.4941,2.4604-2.4619.791-1.1426,1.23-3.1641,2.021-4.1299.1792-.1787.356-.2666.5288-.3515v7.3828c-1.143.4365-2.1084,2.1953-2.373,2.9883.0893.5244,1.3218,2.0214,2.373,2.9892v20.7432c-.5288.5263-1.2304.9658-1.9336,1.0527-.789.0879-1.6694-.6133-3.0766-.9658v-9.7568c.4394.2636.8828.3535,1.0556.1748,1.3155-1.0557,1.4942-1.3135,1.8462-2.7227.1748-.5283-1.8462-2.46-2.9018-3.251v-11.6914Zm5.0102-6.9433c1.5816-.9678,4.5728-.8799,5.9756-.2666,1.3194.705,1.4986,2.1982,1.1426,3.2529l-.3516.7978c-.3501,1.0508.0913,3.8653.439,4.127.439.5293.793.8789,1.6714.6992.7036.0918,1.9336,2.7266,1.4048,3.9551-.1729.4414-.2578.8828-.876,1.5859-1.4927,1.4073-2.3731,3.6905-2.812,5.9737,4.5683,4.5722,8.5273,9.0537,12.9189,13.7158,2.1084,2.6357,3.5176,5.624,2.4644,6.9433-.8784.7911-3.6944-.1787-6.773-3.08l-12.7441-11.9532c-.6162.9678-1.23,2.5498-2.019,4.3955v1.584c.0874.5283.3496,1.1426.1772,1.584-.1772.2647-.354.5264-.6182.7891v-20.7432c.6182.6143,1.23,1.0527,1.4029.9658,1.0571-.791,1.1465-2.8994.8823-3.6924-.2622-1.1406-.791-2.8144-2.021-3.3427-.0874.0918-.1792.0918-.2642.0918v-7.3828Z" fill="#005826" fill-rule="evenodd" stroke-width="0"/>
      <path d="m150.7129,0C67.4765,0,0,67.4765,0,150.7109s67.4765,150.7149,150.7129,150.7149,150.7128-67.4766,150.7128-150.7149S233.9492,0,150.7129,0Zm0,291.4785c-77.7417,0-140.7681-63.0235-140.7681-140.7676S72.9712,9.9467,150.7129,9.9467s140.768,63.0249,140.768,140.7642-63.0263,140.7676-140.768,140.7676Zm0-277.4395C75.2314,14.039,14.0366,75.2295,14.0366,150.7109s61.1948,136.6758,136.6763,136.6758,136.6757-61.1904,136.6757-136.6758S226.1943,14.039,150.7129,14.039Zm0,270.4834c-73.9039,0-133.8101-59.9082-133.8101-133.8115S76.809,16.9028,150.7129,16.9028s133.81,59.9087,133.81,133.8081-59.9062,133.8115-133.81,133.8115Z" fill="#005826" fill-rule="evenodd" stroke-width="0"/>
      <g>
        <path d="m59.3276,128.6562l-7.4741-1.9394.1914-.67c1.9482.212,3.6714-.1416,5.1577-1.0615,1.4883-.9179,2.4375-2.1006,2.8496-3.5449.3203-1.1182.2725-2.0879-.1377-2.9082-.4121-.8213-1.0054-1.3438-1.7817-1.5664-.4912-.1397-.9634-.1524-1.4112-.0293-.6054.1699-1.2592.5351-1.9648,1.0928-.5078.4121-1.4858,1.415-2.9365,3.0136-2.0274,2.2412-3.7364,3.6504-5.1348,4.2354-1.397.5723-2.8267.6514-4.292.2334-1.8628-.5313-3.2554-1.7129-4.1836-3.5469-.9262-1.834-1.0718-3.8652-.4331-6.1006.1958-.6992.4561-1.3447.7788-1.9248.3184-.5849.8115-1.2929,1.4737-2.1211.3681-.4619.6015-.8642.6992-1.2031.081-.2852.0561-.6162-.0708-.9971-.1289-.3808-.3892-.7324-.7827-1.0556l.1772-.6094,8.4063,2.3975-.1748.6074c-2.5015-.1934-4.5704.2207-6.2066,1.2412-1.6318,1.0215-2.6767,2.3252-3.1304,3.9111-.3496,1.2276-.2934,2.2979.1646,3.2178.4619.918,1.1362,1.5049,2.0229,1.7568.5245.1494,1.0743.1553,1.6446.0157.5742-.1368,1.1611-.4288,1.771-.8692.6059-.4433,1.4673-1.2871,2.5932-2.5273,1.5738-1.7442,2.8394-2.9571,3.7906-3.6446.955-.6865,1.9316-1.1445,2.9306-1.3759,1.0029-.2266,2.021-.1953,3.0635.1045,1.7754.5039,3.0972,1.5859,3.9756,3.247.8784,1.6592,1.0322,3.4776.4663,5.4571-.2061.7246-.4956,1.4013-.8638,2.0293-.2768.4765-.6972,1.0351-1.2656,1.6738-.5659.6367-.8931,1.1025-.9761,1.4004-.0835.2832-.0581.5332.0689.747.1289.2129.5078.4873,1.1342.8184l-.1396.4951Z" fill="#005826" stroke-width="0"/>
        <path d="m58.2578,129.1894l-1.6128,11.8467-.6289-.0869.081-.5908c.1231-.8916.1148-1.5157-.0268-1.8741-.1436-.3574-.3662-.6298-.6743-.8154-.3081-.1875-1.1158-.3701-2.4268-.5449l-11.2373-1.5342c-2.0547-.2793-3.4365-.3105-4.144-.0898-.7081.2187-1.3301.6533-1.8653,1.3047-.5371.6523-.8804,1.5175-1.0259,2.6005-.1728,1.2403-.0356,2.3389.4014,3.2881.4434.9512,1.1201,1.711,2.0464,2.2793.9219.5684,2.5996,1.0176,5.0366,1.3506l9.3623,1.2764c1.0259.1387,1.7754.1308,2.2437-.0235.4682-.1543.8095-.3828,1.0239-.6865.3291-.4707.5581-1.1699.6826-2.0986l.6245.0879-1.0801,7.9385-.6264-.086.0644-.4746c.0874-.6426.0313-1.1963-.1684-1.6602-.2041-.4648-.5498-.8291-1.043-1.0888-.3393-.1983-.978-.3584-1.915-.4873l-8.7168-1.1885c-2.6973-.3682-4.6206-.8096-5.7676-1.3281-1.1489-.5176-2.1314-1.5352-2.9448-3.0489-.8184-1.5126-1.064-3.4589-.7412-5.8398.2729-1.9883.7475-3.4863,1.4238-4.498.9263-1.3799,1.9917-2.2959,3.2031-2.752s2.7705-.5537,4.6768-.293l11.2417,1.5313c1.3198.1797,2.1499.2168,2.4912.1142.3418-.1015.6352-.3203.8721-.6552.2417-.3369.4248-.9864.5434-1.961l.6265.0879Z" fill="#005826" stroke-width="0"/>
        <path d="m55.5459,157.1904l-13.7725,12.1426,9.9487-.5039c1.3887-.0684,2.3169-.3184,2.7852-.7383.6328-.583.9033-1.5137.8179-2.7979l.6284-.0312.3891,7.6445-.6303.0293c-.1748-.9697-.3726-1.6191-.587-1.9433-.2163-.3272-.5537-.5704-1.0117-.7373-.4599-.1641-1.2363-.2188-2.3291-.1622l-19.2651.9786-.0269-.583,18.4698-16.626-14.709.749c-1.3301.0684-2.2144.416-2.6494,1.0488-.437.6328-.6328,1.3408-.5952,2.127l.0268.5459-.6284.0312-.4165-8.207.6308-.0332c.0748,1.2754.3829,2.1475.92,2.624.5371.4727,1.4194.6787,2.6494.6182l16.3286-.8301.5913-.5244c.5908-.5225.9697-.9766,1.1445-1.3594.1748-.3848.2539-.9326.2393-1.6377l.6328-.0312.4185,8.207Z" fill="#005826" stroke-width="0"/>
        <path d="m66.3774,201.1152l-.5869.2334c-.377-.6719-.8013-1.1338-1.2656-1.3877-.6578-.3545-2.2002-.708-4.6372-1.0664l-9.6495-1.5713-5.2075,2.0693c-1.1137.4385-1.7837.7715-2.0044.9971-.2226.2246-.3725.5469-.4414.9737-.0683.4248.0083.9238.2354,1.497l.4809,1.209-.5874.2305-4.7993-12.0821.5869-.2334.4473,1.126c.2519.6348.5644,1.0928.9346,1.376.2563.2168.5976.333,1.018.3477.3018.0166.9908-.1895,2.0708-.6182l4.3208-1.7149,7.2144-8.7314c1.4194-1.7295,2.2104-2.8643,2.3686-3.4053s.1079-1.1572-.1543-1.8506l.587-.2324,4.1025,10.3194-.5913.2353-.1831-.46c-.2476-.6269-.5098-1.0263-.7905-1.2031-.2769-.1797-.5186-.2256-.7183-.1465-.3828.1504-1.1699.9541-2.3667,2.4131l-5.5884,6.7207,8.0361,1.2969c1.9693.3301,3.2139.3926,3.73.1865.2871-.1142.4722-.3447.5513-.6943.123-.4649.019-1.1885-.312-2.1738l.5913-.2344,2.6079,6.5742Z" fill="#005826" stroke-width="0"/>
        <path d="m56.6801,215.2549l-4.4477-6.8731-2.4209.4082c-.8052.1416-1.4111.3428-1.8233.6074-.5473.3535-.8056.8369-.7802,1.4444.0166.3545.312,1.0654.8906,2.1269l-.5288.3457-4.1875-6.4707.5307-.3437c.5577.6308,1.2173,1.0156,1.9815,1.1611.7661.1416,2.102.0654,4.0088-.2324l20.0268-3.085.1748.2705-11.414,17.3379c-1.0762,1.6445-1.6734,2.8106-1.7881,3.4971-.0855.5156.0395,1.0859.3745,1.7109l-.5283.3408-6.0903-9.4091.5327-.3438.248.3867c.4888.7559.9385,1.2198,1.3486,1.3887.2852.1104.5767.0752.8619-.1103.1723-.1123.3305-.2579.4785-.4307.0708-.0733.3374-.4502.7973-1.126l1.7544-2.6015Zm.7452-1.1739l4.8247-7.2334-8.6294,1.3506,3.8047,5.8828Z" fill="#005826" stroke-width="0"/>
        <path d="m87.0517,225.2822l-4.5459,4.3174-.4243-.4453c.7993-1.2618,1.2734-2.2686,1.4233-3.0264.1524-.7578.0982-1.5449-.1601-2.3652-.1499-.4532-.5972-1.0752-1.3447-1.8584l-1.1885-1.253-12.9483,12.3077c-.8593.8173-1.3486,1.373-1.4736,1.6728-.1245.2979-.1372.6621-.0351,1.0908.1001.4307.3808.8848.8344,1.3653l.5327.5556-.4599.4356-8.3545-8.792.4599-.4326.5308.5576c.4619.4853.918.7949,1.376.9287.3183.1035.6763.085,1.0781-.0586.2832-.0957.8428-.5459,1.688-1.3447l12.9482-12.3076-1.1508-1.2129c-1.0743-1.1299-2.0962-1.7237-3.064-1.7823-1.3486-.083-2.7329.3711-4.1504,1.3575l-.4473-.4707,4.5455-4.3184,14.3305,15.0791Z" fill="#005826" stroke-width="0"/>
        <path d="m85.3388,241.3213l-6.6274-5.1368,1.8276-2.3554,6.6231,5.1425-1.8233,2.3497Z" fill="#005826" stroke-width="0"/>
        <path d="m106.288,237.1259l-3.853,6.6993-.5971-.3643c.7221-1.8271.8388-3.5791.3476-5.2568-.4932-1.6797-1.3823-2.9102-2.6665-3.6924-.9946-.6035-1.9399-.8164-2.8408-.6367-.9014.1787-1.5611.6133-1.9839,1.3027-.2681.4385-.4014.8906-.4014,1.3545.002.6289.1787,1.3574.5308,2.1836.2602.5996.9697,1.8125,2.1289,3.6338,1.6235,2.5478,2.5312,4.5752,2.7246,6.0781.1812,1.4941-.1226,2.8975-.9155,4.2041-1.0073,1.6523-2.5166,2.6856-4.5313,3.0908-2.0146.4102-4.0151.0108-6.0005-1.1963-.6245-.3808-1.1718-.8017-1.6508-1.2656-.4805-.4648-1.0303-1.126-1.6524-1.9863-.3496-.4785-.6743-.8096-.9761-.9942-.2543-.1523-.581-.2168-.9804-.1933-.4019.0224-.812.1806-1.23.4717l-.5391-.3262,4.5454-7.4746.5415.3271c-.8515,2.3623-1.0014,4.4688-.4516,6.3145.5493,1.8467,1.5317,3.1992,2.9429,4.0566,1.0883.666,2.1377.8955,3.1469.6953,1.0074-.2002,1.7505-.6953,2.2315-1.4824.2851-.4658.437-.9941.4536-1.583.0185-.5898-.106-1.2344-.3726-1.9385-.2666-.6992-.851-1.7568-1.7524-3.1718-1.2593-1.9815-2.0982-3.5215-2.5039-4.625-.4121-1.1026-.5933-2.1641-.5498-3.1924.0459-1.0244.3457-2.003.9096-2.9268.9595-1.5752,2.3541-2.5683,4.188-2.9717,1.8335-.4082,3.6299-.0752,5.3907.9991.643.3886,1.2197.8447,1.7255,1.3691.3892.3955.8135.9492,1.2779,1.665.4663.7159.8305,1.1553,1.0928,1.3135.2539.1563.4995.1973.7407.1309.2373-.0664.6015-.3574,1.0927-.874l.4375.2626Z" fill="#005826" stroke-width="0"/>
        <path d="m113.5332,242.4043l-3.4883,8.7539.4267.1709c1.3653.5449,2.5245.5078,3.48-.0996.9551-.6162,1.8462-1.7237,2.6826-3.3262l.606.2412-4.4917,11.2646-.5996-.2412c.3603-1.2783.4956-2.3896.3955-3.3349-.0957-.9453-.3579-1.6592-.7866-2.1436-.4331-.4834-1.1616-.9306-2.1875-1.3408l-2.4165,6.0615c-.4707,1.1836-.71,1.9287-.7163,2.2315-.0059.3076.0962.5967.3042.8779.206.2793.6181.5391,1.2299.7822l1.2862.5147c2.0107.8008,3.8071.9756,5.3886.5283,1.5821-.4473,3.0142-1.5195,4.3047-3.2119l.5869.2334-3.6948,6.4521-18.5928-7.4092.233-.5869.7163.2832c.6201.2491,1.1694.337,1.6382.2686.3349-.04.6489-.2109.9384-.5107.2163-.2042.5391-.8487.9722-1.9288l5.6382-14.1513c.3891-.9727.5996-1.5801.6372-1.8233.0415-.4121-.0396-.7763-.2456-1.0908-.2832-.456-.7764-.8242-1.4717-1.1035l-.7158-.2832.2329-.5869,18.0083,7.1767-2.5352,6.3604-.604-.2363c.3145-1.6797.3272-2.9668.042-3.8653-.2851-.8974-.8745-1.707-1.7632-2.4297-.5161-.4287-1.5878-.9658-3.2177-1.6152l-2.2207-.8818Z" fill="#005826" stroke-width="0"/>
        <path d="m131.6723,246.8877l8.6709,16.1757,1.7818-9.7968c.2475-1.3672.2207-2.3272-.083-2.8809-.4205-.7471-1.2657-1.2256-2.5352-1.4336l.1143-.6201,7.5283,1.3691-.1143.6202c-.9844-.0518-1.6631-.0079-2.0273.1269-.3682.1358-.6826.4102-.9492.8164-.2642.4102-.4952,1.1533-.689,2.2266l-3.4526,18.9726-.5704-.1045-11.958-21.7734-2.6347,14.4844c-.2393,1.3115-.1001,2.25.414,2.8183.5161.5704,1.1617.9239,1.9336,1.0655l.5391.0957-.1143.622-8.084-1.4707.1143-.6211c1.2573.2168,2.1792.1172,2.7642-.2949.5825-.417.9843-1.2285,1.205-2.4394l2.9263-16.0791-.3789-.6953c-.3701-.6924-.7222-1.167-1.0591-1.4258-.3354-.2578-.8452-.46-1.5381-.6074l.1123-.6241,8.084,1.4737Z" fill="#005826" stroke-width="0"/>
        <path d="m153.8432,249.7119l11.8306-1.7422.0957.626-.5952.0859c-.8887.1309-1.4864.3164-1.7901.5498-.3061.2324-.5078.5264-.5971.874-.0938.3477-.0459,1.1739.1499,2.4805l1.6504,11.2227c.3017,2.0488.6557,3.3847,1.0615,4.0048.4101.6202,1.001,1.0967,1.7734,1.4317.772.3359,1.7046.4228,2.7847.2627,1.2383-.1807,2.2563-.6162,3.0449-1.3028.793-.6875,1.3345-1.5488,1.6235-2.5937.2876-1.0449.254-2.7852-.104-5.2158l-1.3754-9.3496c-.1499-1.0244-.3643-1.7403-.6436-2.1475-.2788-.4082-.5928-.6748-.9448-.7959-.5474-.1826-1.2822-.208-2.2041-.0742l-.0918-.6231,7.9238-1.165.0938.626-.4722.0674c-.6411.0957-1.1572.3037-1.5488.6259-.3912.3223-.6451.7559-.7574,1.3028-.0957.3808-.0732,1.039.0645,1.9756l1.2798,8.7041c.3974,2.6933.5058,4.664.3266,5.9091-.1787,1.2471-.8803,2.4727-2.1084,3.6778-1.228,1.2051-3.0283,1.9814-5.4072,2.331-1.9814.292-3.5552.2539-4.7143-.1162-1.5821-.5039-2.7598-1.2744-3.5342-2.3125-.7744-1.039-1.3008-2.5078-1.5821-4.4101l-1.6503-11.2256c-.1934-1.3174-.3873-2.125-.5806-2.4268-.1958-.2978-.4873-.5156-.8721-.6553-.3916-.1376-1.0698-.1337-2.0356.0225l-.0938-.624Z" fill="#005826" stroke-width="0"/>
        <path d="m183.0493,243.9355l15.6582,9.5918-3.4092-9.3603c-.477-1.3047-.9888-2.1211-1.5278-2.4454-.7412-.4335-1.7129-.4189-2.9141.0411l-.2187-.5928,7.1958-2.6201.2163.5947c-.8765.4541-1.4405.8311-1.688,1.1328-.2476.3018-.3828.6973-.4058,1.1836-.021.4893.1538,1.2451.5264,2.2734l6.6045,18.126-.5435.2002-21.3281-12.7646,5.0415,13.8388c.4536,1.253,1.0508,1.9942,1.7812,2.2246.733.2315,1.4698.2129,2.2066-.0576l.5161-.1855.2163.5908-7.7217,2.8145-.2187-.5957c1.1929-.4454,1.9399-.9952,2.2353-1.6504.2959-.6534.2334-1.5586-.187-2.7139l-5.5971-15.3652-.6744-.4073c-.6723-.4101-1.2197-.6416-1.6357-.6972-.4229-.0528-.9678.0332-1.6362.2509l-.2183-.5927,7.7261-2.8145Z" fill="#005826" stroke-width="0"/>
        <path d="m219.1655,251.8076l.314.5498-10.5254,5.9961-.3145-.5518.6704-.3789c.5806-.333.9927-.707,1.228-1.1152.1812-.2852.2437-.6367.1895-1.0488-.0249-.3018-.3247-.9551-.9014-1.9649l-7.5429-13.2422c-.5889-1.0283-1.0093-1.6396-1.2632-1.8359-.2564-.1953-.6016-.2949-1.0469-.2988-.4394-.0069-.9429.1533-1.5073.4746l-.6699.3828-.3101-.5498,10.521-5.9981.3145.5489-.6661.3828c-.5849.3291-.997.7041-1.2343,1.1142-.1807.2852-.2456.6387-.2017,1.0586.0269.2998.3267.9541.9014,1.9629l7.5429,13.2402c.5889,1.0323,1.0132,1.6397,1.2715,1.836.2603.1914.6118.289,1.0552.293.4414.0039.9429-.1543,1.5068-.4766l.6685-.3789Z" fill="#005826" stroke-width="0"/>
        <path d="m226.1152,217.7939l.4014.4844c-.5596.6455-.8531,1.4717-.8741,2.4795-.0019.7451.3018,2.2265.9219,4.4541l5.1685,18.707-.437.3623-17.8731-9.0957c-2.1523-1.0947-3.478-1.6894-3.9756-1.7812-.4995-.0918-1.1259.1123-1.8813.6074l-.4058-.4873,8.544-7.0889.4057.4854-.2934.2392c-.7701.6407-1.2154,1.1739-1.334,1.5987-.0938.2998-.0332.5761.1767.83.1314.1563.3204.3145.5704.4688.2456.1582.9594.539,2.1416,1.1406l11.1645,5.7197-3.0366-10.8232c-.3706-1.3057-.645-2.1563-.8179-2.5645-.1684-.4043-.352-.7187-.539-.9472-.2208-.2617-.4849-.4346-.7911-.5225-.3061-.0849-.6391-.0664-.997.0537-.5059.1651-1.0635.5039-1.688,1.0205l-.4019-.4873,5.8511-4.8535Z" fill="#005826" stroke-width="0"/>
        <path d="m230.6733,213.2109l7.5723,5.6133.2768-.3711c.8721-1.1797,1.1382-2.3096.7886-3.3897-.3477-1.0781-1.1885-2.2275-2.5269-3.4453l.3872-.5224,9.7408,7.2226-.3867.5205c-1.1407-.6767-2.1817-1.0908-3.1202-1.2382-.9365-.1524-1.6943-.0772-2.2729.2158-.5806.2939-1.2012.8828-1.8589,1.7695l5.2432,3.8857c1.0239.7618,1.684,1.1807,1.9751,1.2637.2934.083.5996.0606.9223-.0683.3223-.1299.6807-.461,1.0762-.9912l.8218-1.1114c1.2905-1.7383,1.9214-3.4306,1.8901-5.0742-.0273-1.6426-.6953-3.3037-2.0024-4.9814l.3769-.5079,5.2905,5.2227-11.9179,16.0781-.5098-.3759.46-.6163c.3994-.541.6264-1.0488.6762-1.5195.0479-.333-.0351-.6787-.2495-1.0371-.1479-.2617-.685-.7402-1.6196-1.4316l-12.2363-9.0723c-.8428-.6231-1.3736-.9844-1.6006-1.0801-.3892-.1465-.7617-.1631-1.1196-.042-.5142.1582-.9927.5371-1.4424,1.1406l-.4561.6163-.5078-.375,11.5435-15.5704,5.5034,4.0772-.3872.5225c-1.5405-.7325-2.7832-1.0723-3.7261-1.0284-.9404.0459-1.8711.4063-2.7974,1.0821-.5449.3896-1.3403,1.2881-2.3828,2.6953l-1.4238,1.9238Z" fill="#005826" stroke-width="0"/>
        <path d="m251.456,200.331l6.0318,2.3975c1.1655.4619,1.9252.6826,2.2832.6582.3579-.0215.6992-.1768,1.0219-.4668.3247-.2871.6807-.9238,1.0718-1.9063l.5869.2286-4.3789,11.0195-.5869-.2334c.3975-.9951.5703-1.707.5244-2.1358-.0415-.4267-.185-.7714-.4223-1.0322-.2398-.2597-.941-.622-2.1045-1.084l-13.9703-5.5537c-1.1635-.4619-1.9252-.6806-2.2832-.6572-.3579.0225-.7016.1768-1.0239.4678-.3227.2851-.6806.9199-1.0722,1.9072l-.585-.2354,3.9736-10.0009c1.0366-2.6016,1.9732-4.4375,2.812-5.4991.8389-1.0615,1.896-1.7841,3.1656-2.1611,1.27-.376,2.56-.3076,3.8613.2129,1.5879.6309,2.6704,1.7236,3.2529,3.2783.3662.9903.4536,2.2061.2603,3.6485l9.3413-2.2774c1.2134-.3017,1.9917-.5517,2.3374-.7451.5014-.3037.8804-.7324,1.1382-1.292l.5874.2354-2.6958,6.7763-12.565,3.0371-.562,1.4131Zm-10.5547-4.1963l9.4263,3.7471.3603-.9033c.5826-1.4717.8868-2.627.9073-3.4639.021-.8369-.2373-1.6045-.7739-2.3017-.5391-.6993-1.3741-1.2745-2.5064-1.7237-1.6377-.6494-3.0054-.749-4.0918-.291-1.0884.4531-1.9731,1.5313-2.6475,3.2383l-.6743,1.6982Z" fill="#005826" stroke-width="0"/>
        <path d="m246.3462,168.5234l7.6469,1.082-.1123.6934c-1.9648.0059-3.6343.5537-5.0097,1.6338-1.376,1.082-2.1875,2.3642-2.4336,3.8467-.189,1.1445-.0352,2.1045.4643,2.874.5039.7705,1.1509,1.2217,1.9502,1.3525.5059.086.9741.042,1.4072-.1269.5826-.2373,1.1905-.6739,1.8272-1.3067.458-.4658,1.3198-1.5752,2.581-3.3281,1.7588-2.4541,3.3013-4.0527,4.625-4.7891,1.3218-.7285,2.7369-.9658,4.2378-.7158,1.9107.3203,3.4297,1.336,4.5581,3.0528,1.128,1.7177,1.5049,3.7216,1.1216,6.0136-.1186.7198-.3076,1.3877-.5576,2.002-.2539.6162-.6641,1.374-1.228,2.2724-.3164.504-.5015.9288-.5576,1.2745-.0503.2929.0122.622.1831.9843.1684.3643.4682.6846.895.9639l-.104.624-8.6299-1.4355.1045-.625c2.5098-.0899,4.5185-.7344,6.0298-1.9317,1.5107-1.1982,2.3994-2.6123,2.6704-4.2412.2099-1.2578.0332-2.3193-.5269-3.1767-.562-.8614-1.2964-1.3692-2.206-1.5196-.5415-.0918-1.0864-.0332-1.6402.167-.5517.2041-1.1035.5576-1.6547,1.0694-.5538.5058-1.3199,1.4404-2.2959,2.8017-1.3697,1.9092-2.4873,3.2598-3.3594,4.0489-.8677.7929-1.7901,1.3544-2.7578,1.6962-.9659.3428-1.9878.4239-3.0533.2471-1.8212-.3017-3.2597-1.2295-4.3188-2.7803-1.0576-1.5507-1.4175-3.3408-1.0806-5.374.125-.7431.3355-1.4472.6289-2.1133.2246-.5058.5806-1.1074,1.0718-1.8066.4932-.6973.7617-1.1943.812-1.4981.0479-.2919,0-.539-.1543-.7373-.1518-.1992-.5576-.4287-1.2177-.6865l.0835-.5078Z" fill="#005826" stroke-width="0"/>
        <path d="m270.8877,155.0234l.6328.0107-.1729,12.1133-.6328-.0078.0083-.7685c.0127-.6719-.0977-1.2159-.333-1.6299-.1558-.2979-.4243-.5303-.8096-.6953-.2724-.1309-.9887-.2012-2.1499-.2178l-15.2402-.2168c-1.186-.0166-1.9248.0352-2.2246.1562-.2979.1202-.5601.3721-.7871.7491-.231.3789-.3472.8925-.3555,1.542l-.0127.7685-.6328-.0107.1748-12.1133.6328.0127-.0127.7656c-.0083.6738.1021,1.2158.3374,1.6299.1538.2978.4248.5342.8096.7119.2705.127.9868.2012,2.1479.2178l15.2422.2168c1.1841.0166,1.9253-.0371,2.2227-.1621.2978-.1289.562-.3789.789-.7598.229-.3789.3453-.8926.3536-1.542l.0127-.7705Z" fill="#005826" stroke-width="0"/>
        <path d="m247.1308,133.4101l6.2173-.8095.0811.6103c-1.3882.5488-2.3648,1.084-2.9371,1.6045-.5683.5225-.9887,1.1924-1.2631,2.0088-.146.458-.148,1.2197-.0083,2.293l.2207,1.7109,17.7207-2.3096c1.1738-.1543,1.8979-.3164,2.1772-.4834.2769-.166.5015-.456.6699-.8633.1709-.4062.2168-.9394.1294-1.5927l-.102-.7617.6264-.0831,1.5713,12.0284-.6264.081-.1021-.7617c-.0874-.666-.2749-1.1885-.5639-1.5635-.1978-.2724-.4996-.4677-.9053-.5888-.2852-.087-1.0054-.0567-2.1587.0918l-17.7168,2.3105.2143,1.6602c.2022,1.5488.6768,2.6269,1.4239,3.2431,1.0449.8633,2.4267,1.3155,4.1543,1.3526l.0835.6455-6.2129.8076-2.6934-20.6309Z" fill="#005826" stroke-width="0"/>
        <path d="m240.1665,109.1689l.6059-.1797c.314.7061.6909,1.2051,1.1343,1.503.6182.4121,2.123.9091,4.5103,1.4921l9.4599,2.4668,5.376-1.5712c1.1489-.335,1.8442-.6036,2.0854-.8038.2456-.2041.4205-.5117.5308-.9326.1084-.416.0791-.9199-.0913-1.5088l-.3662-1.247.6055-.1787,3.6464,12.4755-.6054.1797-.3394-1.164c-.1914-.6553-.458-1.1426-.8013-1.4571-.2353-.2392-.5639-.3867-.9824-.4433-.2978-.041-1.0054.0976-2.1191.4248l-4.458,1.3027-7.9966,8.0156c-1.5757,1.5879-2.4688,2.6416-2.6787,3.1661-.2085.5244-.2149,1.1445-.0171,1.8564l-.6055.1787-3.1177-10.6562.6075-.1788.1396.4737c.1875.6455.4141,1.0703.6743,1.2724.2603.2041.4951.2745.7012.2139.3936-.1162,1.2573-.8408,2.5855-2.1787l6.1835-6.1699-7.8696-2.0391c-1.9316-.5146-3.1636-.6933-3.7026-.539-.2915.0869-.4976.3017-.6123.6406-.1665.4541-.127,1.1845.1084,2.1943l-.6055.1787-1.9858-6.7871Z" fill="#005826" stroke-width="0"/>
      </g>
      <path d="m150.7129,147.5966c-.5704,0-1.0323.4629-1.0323,1.0333v8.2666c0,.5703.4619,1.0322,1.0323,1.0322s1.0366-.4619,1.0366-1.0322v-8.2666c0-.5704-.4663-1.0333-1.0366-1.0333Zm33.5166-36.7607c-4.3399-14.4053-17.7002-24.8994-33.5166-24.8994s-29.1768,10.4941-33.5166,24.8994c-23.7403,1.3565-42.5748,21.0303-42.5748,45.1113s18.8345,43.7549,42.5748,45.1123c4.3398,14.4073,17.7001,24.8995,33.5166,24.8995s29.1767-10.4922,33.5166-24.8995c23.7402-1.3574,42.5747-21.0322,42.5747-45.1123s-18.8345-43.7548-42.5747-45.1113Zm36.2431,47.5635c-.0293.4785-.0605.957-.1064,1.4277-.0249.2246-.0542.4434-.0811.6641-.0478.4121-.0957.8222-.1562,1.2304-.0352.2452-.0791.4864-.1226.7286-.0644.3828-.1269.7617-.2021,1.1377-.0498.2548-.1079.5019-.1641.7539-.0772.3603-.1606.7246-.248,1.082-.0665.2559-.1333.5107-.2061.7598-.0913.3496-.187.6953-.291,1.041-.0791.2558-.1582.5078-.2437.7617-.1103.3369-.2207.6719-.3393,1.0029-.0894.2539-.1831.5039-.2769.7559-.1225.3242-.2519.6514-.3872.9736-.0996.2481-.2036.4981-.31.7432-.1397.3164-.2833.6328-.4288.9453-.1142.2432-.227.4873-.3476.7285-.1519.3076-.3101.6162-.4702.9199-.125.2373-.2476.4727-.3789.708-.1646.2998-.3413.5987-.5161.8985-.1353.2295-.2667.4541-.4039.6787-.1811.2998-.3769.5908-.5664.8828-.1411.2168-.2807.4346-.4262.6494-.2022.2949-.4102.585-.6226.8721-.1455.2041-.2851.4101-.439.6094-.227.2998-.4624.5918-.6953.8847-.1435.1787-.2832.3643-.4331.543-.2788.3418-.5742.6748-.8677,1.0039-.1083.1201-.2084.2471-.3183.3682-.4043.4433-.8164.8759-1.2407,1.3007-.1602.1622-.3311.3165-.4976.4747-.2666.2627-.5347.5224-.8096.7744-.1997.1806-.4082.3574-.6118.5351-.25.2178-.4975.4385-.7558.6533-.2203.1856-.4473.3604-.67.5391-.2475.1953-.4931.3955-.7475.5869-.2349.1787-.4805.3516-.7178.5244-.2519.1807-.4995.3604-.7534.5352-.2476.1728-.5039.3369-.7534.501-.2539.167-.5078.331-.7681.4912-.2602.1582-.5268.3164-.791.4726-.2559.1524-.5142.3018-.7764.4473-.2705.1504-.5454.2998-.8198.4434-.2646.1377-.5288.2734-.7954.4062-.2808.1397-.5659.2774-.8511.4121-.2646.1231-.5332.2432-.8056.3623-.2891.127-.5806.2539-.876.375-.273.1123-.5479.2158-.8223.3223-.2978.1143-.5996.2305-.9033.3389-.2749.0957-.5537.1875-.8286.2793-.3101.1035-.6201.206-.9322.2998-.2793.083-.56.1601-.8369.2373-.3183.0888-.6391.1806-.9614.2617-.2793.0674-.5601.1299-.8413.1943-.3286.0742-.6577.1514-.9907.2178-.2744.0547-.5557.1006-.8301.1484-.3438.0596-.687.127-1.0303.1768-.2622.0371-.5288.0664-.791.0996-1.6401.21-3.3096.333-5.0059.333-.8076,0-1.6088-.0332-2.4018-.083-.2871,2.1309-.8013,4.1895-1.5278,6.1465h0c-.1309.3515-.2686.7031-.4161,1.0488-.0771.1875-.1582.3701-.2417.5557-.0854.1953-.1728.3955-.2666.5888-.0893.1914-.1787.377-.2724.5664-.0957.1895-.1914.377-.2915.5665-.0957.1806-.187.3613-.2852.541-.1225.2207-.2514.4433-.3784.6592-.1499.2539-.3061.5078-.4644.7578-.1269.2041-.2558.4082-.3911.6103-.1103.1641-.2226.3311-.3393.4951-.1231.1768-.2476.3535-.377.5264-.1167.165-.2348.3252-.3579.4834-.1396.1846-.2832.3662-.4267.5469-.1123.1416-.2227.2832-.3394.4228-.2456.293-.4932.583-.749.8633-.1167.1318-.2393.2588-.3579.3857-.1646.1749-.3291.3497-.4995.5225-.1294.1348-.2622.2637-.398.3975-.1684.164-.3433.3281-.5161.4931-.127.1182-.2559.2393-.3911.3575-.2417.2187-.4893.4316-.7388.6435-.1294.1065-.2583.2119-.3891.3184-.2417.1982-.4893.3896-.7369.581-.1333.0977-.2666.1953-.3999.293-.206.1523-.4204.3018-.6328.4521-.1352.0918-.2744.1846-.4121.2784-.2392.1582-.4805.3125-.7261.4629-.1103.0703-.2168.1406-.331.208-.3457.2119-.6973.414-1.0552.6093-.1103.0606-.2251.1192-.3374.1768-.2642.1416-.5264.2754-.7949.4062-.1377.0684-.2749.1348-.4146.1973-.2597.125-.52.2422-.7822.3545-.1313.0576-.2602.1162-.3916.1699-.3809.1612-.7656.3145-1.1572.4561-.0269.0107-.0542.0215-.083.0312-.377.1358-.7559.2647-1.1407.3828-.1289.044-.2602.0791-.3916.1211-.289.0879-.5786.1709-.872.2452-.1392.038-.2769.0751-.418.1103-.3227.082-.6475.1563-.9766.2227-.0976.0253-.1953.0488-.2954.0693-.4223.085-.8491.1602-1.2798.2266-.1044.0166-.2084.0293-.3105.0419-.333.0499-.668.0938-1.0049.129-.146.0166-.2895.0293-.4331.0439-.3164.0264-.6328.0518-.9531.0723-.1333.0088-.2686.0166-.4019.0234-.4477.0205-.895.0352-1.3466.0352h-.002c-.4497,0-.8975-.0147-1.3403-.0352-.1377-.0068-.2749-.0146-.4121-.0234-.3164-.0205-.627-.0459-.941-.0723-.1499-.0146-.2954-.0273-.4453-.0439-.3271-.0352-.6557-.0791-.9848-.125-.1104-.0166-.2203-.0293-.3286-.0459-.4268-.0664-.8492-.1416-1.272-.2247-.1104-.0253-.2163-.0517-.3267-.0751-.3144-.0665-.6264-.1368-.9385-.2159-.1479-.0381-.2978-.0752-.4433-.1172-.2813-.0752-.562-.1533-.8389-.2373-.1416-.041-.2812-.081-.4204-.125-.3603-.1142-.7119-.2343-1.0635-.3613-.0771-.0273-.1582-.0547-.2353-.084-.3579-.1328-.7119-.2744-1.0596-.4199-.1435-.0605-.2871-.123-.4326-.1855-.2456-.1084-.4912-.2168-.7329-.3311-.1519-.0723-.3037-.1455-.4556-.2207-.2456-.1182-.4873-.2432-.7266-.3701-.1333-.0713-.2685-.1377-.4018-.2129-.3477-.1865-.6865-.3848-1.0239-.5889-.1372-.081-.2686-.1679-.4038-.2519-.2163-.1367-.4351-.2744-.6475-.416-.1558-.1036-.3101-.2081-.4619-.3125-.1914-.1329-.3789-.2686-.5684-.4053-.1518-.1104-.3037-.2207-.4555-.335-.2061-.1582-.4102-.3183-.6119-.4814-.2124-.1699-.4248-.3428-.6308-.5176-.1958-.1709-.3936-.3379-.585-.5078-.1518-.1377-.3017-.2793-.4497-.419-.1499-.1396-.2993-.2812-.4453-.4248-.1519-.1474-.3037-.2968-.4536-.4472-.1397-.1455-.2769-.293-.4141-.4414-.1479-.1494-.2934-.3037-.4331-.4619-.2207-.2413-.437-.4932-.645-.7452-.1665-.1972-.3291-.3994-.4893-.6015-.1167-.1475-.2309-.2891-.3432-.4395-.1416-.1826-.2749-.3633-.4121-.5488-.1045-.1455-.2061-.292-.3106-.4395-.1308-.1894-.2661-.3808-.393-.5742-.0957-.1435-.1856-.289-.2788-.4326-.2334-.3672-.4605-.7393-.6768-1.1182-.0811-.1377-.1621-.2763-.2393-.416-.1167-.2109-.2309-.4248-.3413-.6396-.0771-.1494-.1543-.3018-.2334-.4551-.1059-.2148-.2099-.4287-.312-.6494-.0708-.1504-.1396-.3086-.208-.46-.102-.2256-.1997-.4482-.2954-.6728-.0273-.0664-.0542-.1368-.0815-.2041-.8926-2.1993-1.5215-4.5332-1.8501-6.9639-.7955.0498-1.5943.083-2.3999.083-1.7193,0-3.4092-.125-5.0684-.3408-.2393-.0313-.4849-.0567-.7222-.0918-.3623-.0547-.7202-.1211-1.0781-.1836-.2622-.0479-.5225-.0918-.7827-.1416-.3452-.0703-.689-.1494-1.0342-.2285-.2646-.0606-.5288-.1162-.791-.1836-.3394-.083-.6724-.1768-1.0073-.2705-.2622-.0723-.5288-.1455-.791-.2246-.3291-.0977-.6495-.208-.9761-.3145-.2622-.0849-.5225-.1728-.7808-.2617-.3203-.1152-.6367-.2354-.9512-.3564-.2578-.0977-.5161-.1993-.7719-.3038-.3081-.1289-.6143-.2597-.9224-.3955-.2539-.1103-.5078-.2246-.7573-.3408-.2998-.1416-.6016-.2832-.897-.4336-.25-.123-.4956-.25-.7432-.3789-.2915-.1533-.5805-.3096-.8701-.4697-.2436-.1358-.4809-.2754-.7202-.4141-.2871-.167-.5683-.3359-.8472-.5107-.2373-.1436-.4702-.2949-.7011-.4453-.2749-.1787-.5498-.3575-.8184-.545-.2309-.1562-.4512-.3203-.6743-.4785-.2705-.1943-.5391-.3838-.7969-.583-.2207-.167-.4331-.3369-.6513-.5078-.2564-.206-.5166-.4082-.7642-.6162-.2144-.1748-.4204-.3623-.6304-.541-.2436-.2168-.4956-.4248-.7368-.6494-.2002-.1836-.3935-.375-.5933-.5645-.2392-.2285-.4809-.4512-.7119-.6846-.1645-.1621-.3164-.333-.4746-.497-.4619-.4815-.9116-.9727-1.3506-1.4805-.1919-.2187-.3852-.4346-.5747-.6572-.1933-.2373-.3808-.4834-.5703-.7227-.1831-.2353-.3745-.4658-.5537-.7051-.1831-.2421-.3559-.4912-.5347-.7373-.1772-.2451-.3559-.4912-.5244-.7412-.1709-.249-.3354-.5029-.5-.7568-.1665-.2568-.3349-.5107-.4931-.7705-.1582-.2578-.3101-.5186-.462-.7783-.1542-.2666-.31-.5284-.4599-.7969-.146-.2647-.2852-.5313-.4268-.7998-.1416-.2744-.2832-.5469-.4204-.8223-.1333-.2724-.2622-.5429-.3911-.8174-.1313-.2812-.2583-.5664-.3852-.8515-.1187-.2744-.2354-.5537-.3497-.833-.1186-.2891-.2353-.5821-.3457-.876-.1059-.2813-.2124-.5635-.31-.8486-.1084-.2979-.208-.5977-.3081-.8975-.0913-.2871-.1851-.5742-.2705-.8643-.0938-.3056-.1787-.6181-.2622-.9277-.0811-.2891-.1626-.5771-.2329-.8701-.0791-.3164-.15-.6348-.2208-.9551-.0668-.292-.1333-.583-.1894-.8789-.0645-.3242-.1231-.6572-.1792-.9863-.0479-.291-.1021-.5811-.1455-.874-.0523-.3458-.0894-.6915-.1314-1.0391-.0332-.2852-.0747-.5684-.102-.8555-.0352-.372-.0601-.749-.0874-1.124-.0166-.2637-.0415-.5283-.0562-.7949-.0229-.5039-.0332-1.0069-.0351-1.5127-.002-.1397-.0127-.2793-.0127-.419,0-.1416.0107-.2783.0127-.416.0019-.5078.0122-1.0117.0351-1.5156.0147-.2656.0396-.5303.0562-.7949.0273-.376.0522-.753.0874-1.1241.0273-.2871.0688-.5703.102-.8525.042-.3506.0791-.6953.1314-1.041.0434-.292.0976-.583.1455-.874.0561-.3291.1147-.6621.1792-.9893.0561-.293.1226-.5849.1894-.876.0708-.3183.1417-.6386.2208-.955.0703-.294.1518-.5811.2329-.8702.0835-.3105.1684-.622.2622-.9287.0854-.289.1792-.5761.2705-.8613.1001-.3018.1997-.6016.3081-.9014.0976-.2832.2041-.5664.31-.8496.1104-.291.2271-.5849.3457-.874.1143-.2783.231-.5576.3497-.832.1269-.2852.2539-.5664.3852-.8516.1289-.2725.2578-.5469.3911-.8184.1372-.2744.2788-.5488.4204-.8212.1416-.2666.2808-.5352.4268-.7998.1499-.2686.3057-.5303.4599-.7969.1519-.2608.3038-.5205.462-.7783.1582-.2588.3266-.5147.4931-.7705.1646-.254.3291-.5079.5-.7579.1685-.25.3472-.4951.5244-.7382.1788-.2481.3516-.4981.5347-.7393.1792-.2373.3706-.4707.5537-.7061.1895-.2392.377-.4843.5703-.7216.1895-.2227.3828-.4375.5747-.6602.439-.501.8887-.9951,1.3506-1.4775.1582-.1641.3101-.335.4746-.4971.231-.2334.4727-.4561.7119-.6855.1998-.1866.3931-.3809.5933-.5635.2412-.2207.4932-.4326.7368-.6494.21-.1787.416-.3662.6304-.543.2476-.2061.5078-.4082.7642-.6143.2182-.1709.4306-.3418.6513-.5078.2578-.2002.5264-.3896.7969-.583.2231-.1601.4434-.3222.6743-.4785.2686-.1875.5435-.3662.8184-.5459.2309-.1494.4638-.2988.7011-.4453.2789-.1748.5601-.3428.8472-.5098.2393-.1396.4766-.2783.7202-.414.2896-.1602.5786-.3164.8701-.4707.2476-.1289.4932-.2559.7432-.3789.2954-.1495.5972-.2911.897-.4327.2495-.1162.5034-.2314.7573-.3408.3081-.1377.6143-.2685.9224-.3955.2558-.1045.5141-.2041.7719-.3047.3145-.1201.6309-.2412.9512-.3535.2583-.0918.5186-.1787.7808-.2666.3266-.1074.647-.2139.9761-.3115.2622-.0791.5288-.1524.791-.2256.3349-.0908.6679-.1865,1.0073-.2705.2622-.0664.5264-.1221.791-.1826.3452-.0791.689-.1621,1.0342-.2295.2602-.0498.5205-.0938.7827-.1387.3579-.0654.7158-.1318,1.0781-.1855.2373-.0381.4829-.0625.7222-.0918,1.6592-.2168,3.3491-.3389,5.0684-.3389.8076,0,1.6088.0312,2.4062.081.3159-2.3564.9116-4.623,1.7671-6.7607.0518-.1416.104-.2764.1602-.4121.0893-.2207.187-.4365.2871-.6514.0708-.164.1435-.3271.2163-.4853.1001-.2139.2002-.4219.3061-.6348.0791-.1601.1646-.3183.2476-.4785.1064-.2061.2143-.4102.3247-.6133.0893-.1631.1855-.3213.2768-.4834.1998-.3457.4058-.6865.6226-1.0244.0996-.1582.2017-.3203.3057-.4766.123-.1845.2519-.372.3789-.5556.1084-.1533.2187-.3076.3291-.46.1308-.1787.2622-.3555.3974-.5322.1187-.1582.2456-.3145.3702-.4727.1274-.1621.2563-.3291.3916-.4892.2373-.2813.4809-.5625.7241-.8369.1352-.1495.2749-.293.4121-.4395.146-.1553.2934-.3115.4414-.4639.1435-.1455.2871-.289.4331-.4306.1558-.1524.314-.3037.4722-.4492.1435-.1338.2832-.2666.4287-.4004.2104-.1866.4228-.3682.6391-.5537.1792-.1495.3623-.3018.5474-.4493.2163-.1728.4331-.3457.6538-.5156.1455-.1084.291-.2129.439-.3213.1933-.1416.3891-.2803.5869-.4179.1455-.1026.2978-.2022.4477-.3018.2203-.1504.4454-.292.668-.4307.1289-.081.2539-.1631.3828-.2392.3394-.2071.687-.4063,1.0366-.5957.125-.0703.2539-.1328.3809-.2022.2456-.1308.4956-.2597.7432-.3808.1499-.0752.2998-.1436.4472-.2139.2481-.1172.4956-.2275.7476-.3379.1391-.0596.2768-.1221.4204-.1807.3579-.1494.7202-.2939,1.0845-.4287.0644-.0254.1328-.0459.1997-.0713.3535-.1289.7158-.249,1.0801-.3662.1372-.0429.2768-.083.414-.125.2813-.083.562-.166.8433-.2392.1455-.0391.291-.0791.4409-.1143.3145-.0791.6265-.1514.9429-.2187.1084-.0225.2143-.0498.3247-.0703.4228-.086.8452-.1622,1.272-.2266.1083-.0176.2182-.0293.3266-.0488.3267-.045.6597-.087.9907-.1221.146-.0166.2915-.0332.4414-.0459.314-.0293.6246-.0518.941-.0713.1372-.0078.2744-.0186.4121-.0244.4428-.0205.8906-.0332,1.3403-.0332h.002c.4516,0,.8989.0127,1.3466.0332.1333.0058.2686.0166.4019.0244.3203.0195.6367.042.9531.0713.1436.0166.2871.0293.4287.0439.3413.0371.6763.0811,1.0137.127.1001.0166.2017.0283.3037.043.4331.0673.8599.1435,1.2822.2295.1001.0185.1978.0439.2954.0644.3291.0703.6539.1455.9766.2266.1411.0351.2788.0693.416.1064.2954.0791.5869.1641.8804.25.125.0391.2563.0772.3809.1162.3916.1231.7807.2539,1.1596.3936.0205.0058.0371.0107.0562.0185.3974.1455.7885.2998,1.1758.4619.125.0547.25.1104.3769.1631.2686.1162.5327.2364.7969.3614.1333.0625.2705.1289.4057.1963.271.1308.5435.2705.8077.414.1084.0537.2168.1104.3227.168.3579.1963.7139.4004,1.0635.6123.104.0625.2085.1289.31.1953.2544.1562.504.3145.7515.4795.1314.0869.2647.1787.3955.2705.2207.1514.437.3037.6538.4619.127.0957.2539.1875.3809.2832.2622.1992.5225.4033.7783.6113.1021.084.2041.167.3062.25.2705.2247.5346.4541.7968.6895.125.1103.2437.2266.3662.3389.1836.1709.3643.3457.5435.5205.1289.123.2539.25.3789.3769.1768.1787.3496.3614.5225.5469.1142.1211.2265.2393.3369.3623.2583.2871.5122.5781.7578.876.1084.1269.21.2607.3145.3896.1557.1934.3076.3867.4555.583.1167.1514.231.3037.3433.46.1357.1826.2646.3682.3955.5557.1103.1582.2168.3134.3247.4746.1435.2138.2812.4326.4185.6513.1372.2207.2705.4385.4018.6641.1436.2412.2852.4805.4185.7236.0957.1729.185.3457.2744.5205.104.1954.206.3916.3042.5909.0893.1816.1787.3623.2661.5459.0957.2041.1855.4082.2768.6142.0791.1768.1582.3535.2334.5342.1475.3477.2852.6992.418,1.0557h-.0019c.7265,1.956,1.2407,4.0146,1.5278,6.1464.793-.0498,1.5942-.081,2.4018-.081,1.6963,0,3.3658.1201,5.0059.331.2622.0333.5288.0616.791.0997.3433.0517.6865.1162,1.0303.1787.2744.0459.5557.0918.8301.1455.333.0674.6621.1455.9907.2207.2812.0625.562.125.8413.1943.3223.0811.6431.1699.9614.2598.2769.0771.5576.1543.8369.2373.3121.0937.6221.1953.9322.2998.2749.0918.5537.1826.8286.2812.3037.1055.6055.2198.9033.337.2744.1064.5493.2099.8223.3222.2954.1211.5869.2481.876.375.2724.1182.541.2393.8056.3623.2852.1348.5703.2705.8511.4121.2666.1328.5308.2686.7954.4053.2744.1436.5493.294.8198.4434.2622.1455.5205.2959.7764.4472.2642.1563.5308.3125.791.4727.2603.1631.5142.3252.7681.4912.2495.167.5058.3291.7534.502.2539.1748.5015.3535.7534.5351.2373.1729.4829.3457.7178.5244.2544.1914.5.3906.7475.5869.2227.1787.4497.3536.67.5371.2583.212.5058.4366.7558.6553.2036.1768.4121.3535.6118.5352.2749.2519.543.5136.8096.7744.1665.1582.3374.3115.4976.4766.4243.4248.8364.8574,1.2407,1.2988.1099.1201.21.2471.3183.3681.2935.3291.5889.6622.8677,1.003.1499.1797.2896.3642.4331.5429.2329.294.4683.585.6953.8848.1539.2002.2935.4043.439.6104.2124.289.4204.5761.6226.872.1455.2139.2851.4326.4262.6494.1895.2911.3853.5831.5664.8819.1372.2256.2686.4502.4039.6787.1748.2998.3515.5976.5161.9014.1313.2334.2539.4687.3789.706.1601.3037.3183.6113.4702.9219.1206.2392.2334.4805.3476.7266.1455.3115.2891.6279.4288.9443.1064.2461.2104.4961.31.7432.1353.3232.2647.6474.3872.9746.0938.2519.1875.5009.2769.7548.1186.3311.229.6661.3393,1.0039.0855.254.1646.5059.2437.7618.104.3427.1997.6904.291,1.04.0728.25.1396.5039.2061.7598.0874.3584.1708.7226.248,1.083.0562.2519.1143.499.1641.7529.0752.377.1377.7598.2021,1.1387.0435.2412.0874.4834.1226.7285.0605.4082.1084.8184.1562,1.2324.0269.2188.0562.4365.0811.6621.0459.4698.0771.9483.1064,1.4278.0122.1621.0269.3261.0352.4931.0312.6494.0478,1.3008.0478,1.958,0,.6582-.0166,1.3096-.0478,1.959-.0083.1641-.023.3311-.0352.4932Zm-69.7597-21.3047c1.2573,0,2.2749-1.0176,2.2749-2.2734,0-1.2549-1.0176-2.2745-2.2749-2.2745s-2.271,1.0196-2.271,2.2745c0,1.2558,1.0136,2.2734,2.271,2.2734Zm9.2622-7.9092h-5.5157v12.5674h-1.8774c-.5288-.4043-1.1885-.6494-1.9043-.6494-.7202,0-1.3804.2451-1.9087.6494h-1.8027v-12.5674h-5.5137v38.3633h-2.2583v5.624h23.041v-5.624h-2.2602v-38.3633Zm-5.5157,38.3633h-7.4931v-3.5898h7.4931v3.5898Zm0-6.0547h-7.4931v-17.4267h2.1147c.0918-.8038.7661-1.4327,1.5967-1.4327.8262,0,1.5044.6289,1.5942,1.4327h2.1875v17.4267Zm5.4595-40.3574h-4.5771v-3.6367h-1.2657v-2.3145h1.2139v-2.0957h-1.2139v-.331c0-1.6875-1.2446-3.0801-2.8681-3.3223v-5.8272h-.9908v5.8272c-1.621.2422-2.8657,1.6348-2.8657,3.3223v.331h-1.2134v2.0957h1.2134v2.3145h-1.2676v3.6367h-4.5771v3.4199h-2.2583v2.2022h22.9287v-2.2022h-2.2583v-3.4199Zm-10.2529,0h-1.2969v-3.6367h1.2969v3.6367Zm3.3906,0h-1.2969v-3.6367h1.2969v3.6367Zm28.5522-.8516h-5.1162c-.3471-13.9453-11.7514-25.1455-25.7797-25.1455s-25.4302,11.2002-25.7798,25.1455h-5.1162c-19.6983,0-35.6646,15.9658-35.6646,35.6621s15.9663,35.6631,35.6646,35.6631h5.1162c.3496,13.9453,11.7514,25.1426,25.7798,25.1426s25.4326-11.1973,25.7797-25.1426h5.1162c19.6939,0,35.6646-15.9668,35.6646-35.6631s-15.9707-35.6621-35.6646-35.6621Zm-61.5361,47.1582c-2.0708-1.7968-4.6289-3.0556-7.4492-3.541h14.3472c-2.8394.0068-5.3492,1.4033-6.898,3.541Zm1.7236,1.75c1.0865-1.7295,3.001-2.8808,5.1949-2.8808,3.3906,0,6.1382,2.7461,6.1382,6.1367h0v6.956h-7.7491c.002-.1084.0083-.2168.0083-.3271,0-3.7637-1.353-7.208-3.5923-9.8848Zm11.3331,12.6221v14.7354h-3.3013v-9.501h0c0-1.9981-.7285-3.8262-1.9312-5.2344h5.2325Zm17.5835,32.6377c-10.1636,0-18.8135-6.458-22.0879-15.4912h44.1753c-3.274,9.0332-11.9239,15.4912-22.0874,15.4912Zm-6.1465-17.9023v-12.1377c.5224-3.0938,3.1469-5.4512,6.3047-5.4512,2.9013,0,5.3471,2.0127,6.1127,4.7539v12.835h-12.4174Zm27.0205-9.501v9.501h-3.4009v-14.7354h5.3286c-1.2031,1.4082-1.9277,3.2363-1.9277,5.2344Zm4.4355-7.9717c0,.1103.0064.2187.0083.3271h-7.8447v-6.956h0c0-3.3906,2.7476-6.1367,6.1382-6.1367,2.2207,0,4.1606,1.1826,5.2387,2.9472-2.2104,2.667-3.5405,6.086-3.5405,9.8184Zm5.2598-11.583c-1.5464-2.167-4.0752-3.586-6.9375-3.5928h14.4429c-2.8472.4912-5.4219,1.7676-7.5054,3.5928Zm27.5264-23.8731c-8.2652,0-15.2173,5.626-17.2364,13.2559h-30.7793v2.4102h30.3194c-.085.7099-.1353,1.4316-.1353,2.1669,0,.0108.0025.0245.0025.0372h-30.1866v2.4101h13.5122c-4.7119.0088-8.5273,3.8301-8.5273,8.5469h0v24.1016h-3.3281v-20.8174h2.0522v-1.6153h-7.5181v5.7295c-1.0468-1.1904-2.4121-2.0742-3.9545-2.5078v-1.8271h.872v-1.4239h-6.4043v1.4239h.8721v1.9209c-1.4922.4892-2.8057,1.4052-3.8027,2.6035v-5.8897h-7.6426v1.586h2.0771v20.8174h-3.4633v-24.1016h0c0-4.7168-3.8155-8.5381-8.5274-8.5469h13.606v-2.4101h-30.1822v-.0372c0-.7353-.0502-1.457-.1333-2.1669h30.3155v-2.4102h-30.7754c-2.021-7.6299-8.9727-13.2559-17.2383-13.2559-1.2236,0-2.4204.1221-3.5757.3575,4.7935-12.3194,16.7593-21.0596,30.7754-21.0655h7.4077v-1.9756h.002c0-12.9775,10.5234-23.498,23.501-23.498s23.5009,10.5205,23.5009,23.498v1.9756h7.4077c14.0181.0059,25.9839,8.7461,30.7774,21.0674-1.1572-.2353-2.3604-.3594-3.5903-.3594Zm-60.1773,58.5743h-4.229l-1.0015,3.0634h3.4009l-.1411,1.2139h-3.6968l-.4555,1.4082h5.688l.435-5.6855Zm-1.6318,2.0166h-1.919l.2647-1.0196,1.8481-.0254-.1938,1.045Zm13.854,2.1621l.7094,1.5068,2.1065-.0957-.8223-1.3125.9702-.0488-.8242-1.4112h-1.1699l-1.4277-2.8173h-1.4571l-1.4882,2.6718.5332,1.5069h2.8701Zm-1.2158-2.6719l.583,1.2627h-1.2159l.6329-1.2627Zm-17.5191-1.5068h-1.6523l-2.5767,5.6855h2.2871l1.9419-5.6855Zm8.311,5.6855h5.7842l-.3706-1.457h-2.2832l1.8008-1.6045-.604-2.624h-4.2769l-.0293,2.1855h1.6504l-.1435-.873h1.5547l.0957.9707-3.1094,1.8955-.0689,1.5068Z" fill="#005826" stroke-width="0"/>
    </g>
  </g>
</svg>